<?xml version="1.0" standalone="no"?>
<!DOCTYPE svg PUBLIC "-//W3C//DTD SVG 20010904//EN"
 "http://www.w3.org/TR/2001/REC-SVG-20010904/DTD/svg10.dtd">
<svg version="1.0" xmlns="http://www.w3.org/2000/svg"
 width="186.000000pt" height="194.000000pt" viewBox="0 0 186.000000 194.000000"
 preserveAspectRatio="xMidYMid meet">

<g transform="translate(0.000000,194.000000) scale(0.100000,-0.100000)"
fill="#000000" stroke="none">
<path d="M765 1748 c-2 -7 -5 -26 -7 -43 -3 -29 -5 -30 -64 -37 -139 -15 -239
-62 -315 -147 -70 -78 -93 -143 -93 -261 0 -122 23 -186 97 -262 60 -62 122
-94 272 -140 l105 -32 0 -174 0 -173 -31 18 c-49 29 -86 77 -100 133 -7 29
-19 54 -25 57 -14 5 -364 -34 -372 -42 -12 -11 33 -140 67 -193 74 -113 195
-190 334 -212 136 -21 127 -17 127 -61 l0 -39 70 0 70 0 -2 807 -3 808 -63 3
c-44 2 -64 -1 -67 -10z m-9 -565 c-2 -2 -18 3 -34 11 -98 51 -96 180 2 221
l31 13 3 -120 c1 -66 1 -123 -2 -125z"/>
<path d="M1020 1555 l0 -195 151 0 152 0 -7 33 c-10 48 -60 150 -108 219 -41
59 -141 138 -175 138 -10 0 -13 -38 -13 -195z"/>
<path d="M1250 1701 c0 -5 4 -11 8 -13 21 -8 94 -141 127 -229 l38 -99 124 0
124 0 -18 32 c-32 58 -194 212 -263 251 -84 46 -140 70 -140 58z"/>
<path d="M1020 1140 l0 -155 185 0 185 0 -6 70 c-7 78 -30 225 -37 231 -3 3
-77 6 -166 7 l-161 2 0 -155z"/>
<path d="M1445 1253 c4 -21 12 -90 19 -153 l11 -115 154 0 154 0 -6 71 c-4 38
-19 106 -34 150 l-28 79 -139 3 -138 3 7 -38z"/>
<path d="M1020 765 l0 -155 164 0 164 0 11 45 c10 40 30 203 31 248 0 16 -15
17 -185 17 l-185 0 0 -155z"/>
<path d="M1470 873 c0 -55 -15 -196 -25 -236 l-7 -27 136 0 135 0 16 31 c24
46 55 176 55 231 l0 48 -155 0 -155 0 0 -47z"/>
<path d="M1020 340 c0 -132 4 -200 10 -200 25 0 88 42 133 87 65 64 126 174
161 291 l7 22 -155 0 -156 0 0 -200z"/>
<path d="M1401 473 c-28 -80 -85 -195 -116 -238 -38 -52 -39 -56 -11 -45 134
51 287 174 375 303 l32 47 -128 0 -128 0 -24 -67z"/>
</g>
</svg>
